<svg viewBox="0.579 0.653 22.505 22.507" width="22.505" height="22.507" xmlns="http://www.w3.org/2000/svg">
    <path fill-rule="evenodd" clip-rule="evenodd"
          d="M 11.833 11.906 C 11.061 11.906 10.308 11.829 9.58 11.681 C 9.581 11.756 9.582 11.831 9.582 11.906 C 9.582 15.588 7.814 18.857 5.081 20.91 C 2.347 18.857 0.579 15.588 0.579 11.906 C 0.579 8.225 2.347 4.956 5.081 2.903 C 6.962 1.49 9.299 0.653 11.833 0.653 C 15.998 0.653 19.635 2.916 21.581 6.28 C 19.635 9.643 15.998 11.906 11.833 11.906 Z M 4.096 6.28 C 4.983 7.497 6.15 8.497 7.501 9.184 C 7.042 7.632 6.199 6.245 5.081 5.131 C 4.92 5.291 4.765 5.456 4.616 5.627 C 4.434 5.837 4.26 6.055 4.096 6.28 Z M 3.172 7.839 C 4.409 9.328 6.023 10.493 7.868 11.188 C 7.885 11.425 7.894 11.665 7.894 11.906 C 7.894 14.553 6.82 16.948 5.081 18.682 C 3.341 16.948 2.267 14.553 2.267 11.906 C 2.267 10.452 2.592 9.073 3.172 7.839 Z M 6.381 4.045 C 7.92 5.621 9 7.647 9.405 9.908 C 10.18 10.11 10.994 10.218 11.833 10.218 C 15.011 10.218 17.828 8.669 19.569 6.28 C 17.828 3.89 15.011 2.341 11.833 2.341 C 9.808 2.341 7.928 2.97 6.381 4.045 Z"
          fill="black"/>
    <path fill-rule="evenodd" clip-rule="evenodd"
          d="M 20.836 11.906 C 21.606 11.906 22.358 11.984 23.084 12.131 C 22.964 18.242 17.973 23.16 11.833 23.16 C 11.063 23.16 10.311 23.082 9.584 22.935 C 9.704 16.824 14.696 11.906 20.836 11.906 Z M 11.833 21.472 C 11.694 21.472 11.557 21.469 11.42 21.463 C 12.221 16.99 16.132 13.594 20.836 13.594 C 20.974 13.594 21.112 13.597 21.248 13.603 C 20.448 18.076 16.537 21.472 11.833 21.472 Z"
          fill="black"/>
</svg>
