<svg viewBox="0 0 100 24" fill="none" xmlns="http://www.w3.org/2000/svg">
    <path fill-rule="evenodd" clip-rule="evenodd" d="M11.311 11.6931C10.5394 11.6931 9.78595 11.6155 9.05808 11.4675C9.05955 11.5425 9.06029 11.6178 9.06029 11.6931C9.06029 15.3748 7.29223 18.6437 4.55889 20.6967C1.82554 18.6437 0.0574951 15.3748 0.0574951 11.6931C0.0574951 8.01141 1.82554 4.74263 4.55889 2.68953C6.43971 1.27677 8.77759 0.439636 11.311 0.439636C15.4764 0.439636 19.1132 2.7027 21.059 6.06635C19.1132 9.43007 15.4764 11.6931 11.311 11.6931ZM3.57447 6.06639C4.46163 7.28406 5.62824 8.28343 6.97955 8.9708C6.51989 7.41897 5.67695 6.03152 4.55889 4.91752C4.39829 5.07752 4.24337 5.24318 4.09445 5.41416C3.91197 5.62371 3.73845 5.84133 3.57447 6.06639ZM2.65042 7.62584C3.88747 9.11507 5.50131 10.2801 7.3457 10.9746C7.3633 11.2118 7.37225 11.4515 7.37225 11.6931C7.37225 14.3397 6.29866 16.7353 4.55889 18.4688C2.81912 16.7353 1.74552 14.3397 1.74552 11.6931C1.74552 10.2388 2.06968 8.86031 2.65042 7.62584ZM5.85928 3.83194C7.39817 5.40805 8.47816 7.4342 8.88332 9.69441C9.65865 9.8972 10.4723 10.0051 11.311 10.0051C14.4887 10.0051 17.3064 8.45621 19.0476 6.06635C17.3064 3.67652 14.4888 2.12766 11.311 2.12766C9.2857 2.12766 7.4066 2.75684 5.85928 3.83194Z" fill="black"></path>
    <path fill-rule="evenodd" clip-rule="evenodd" d="M20.3137 11.6931C21.0837 11.6931 21.8357 11.7705 22.5623 11.9178C22.4426 18.0293 17.451 22.9466 11.3109 22.9466C10.5409 22.9466 9.78906 22.8693 9.0625 22.722C9.18217 16.6105 14.1737 11.6931 20.3137 11.6931ZM11.3109 21.2586C11.1726 21.2586 11.035 21.2557 10.8982 21.2498C11.6989 16.7766 15.61 13.3811 20.3137 13.3811C20.4521 13.3811 20.5897 13.3841 20.7264 13.3898C19.9259 17.8631 16.0148 21.2586 11.3109 21.2586Z" fill="black"></path>
</svg>
